<svg id="visual" viewBox="0 0 960 540" width="960" height="540" xmlns="http://www.w3.org/2000/svg" xmlns:xlink="http://www.w3.org/1999/xlink" version="1.1"><rect x="0" y="0" width="960" height="540" fill="#f3f3f3"></rect><path d="M0 359L10.7 359C21.3 359 42.7 359 64 357.5C85.3 356 106.7 353 128 348.3C149.3 343.7 170.7 337.3 192 339.2C213.3 341 234.7 351 256 357.2C277.3 363.3 298.7 365.7 320 363.8C341.3 362 362.7 356 384 352.8C405.3 349.7 426.7 349.3 448 349.2C469.3 349 490.7 349 512 349.5C533.3 350 554.7 351 576 352.3C597.3 353.7 618.7 355.3 640 357C661.3 358.7 682.7 360.3 704 362.2C725.3 364 746.7 366 768 364.8C789.3 363.7 810.7 359.3 832 357.2C853.3 355 874.7 355 896 351.8C917.3 348.7 938.7 342.3 949.3 339.2L960 336L960 541L949.3 541C938.7 541 917.3 541 896 541C874.7 541 853.3 541 832 541C810.7 541 789.3 541 768 541C746.7 541 725.3 541 704 541C682.7 541 661.3 541 640 541C618.7 541 597.3 541 576 541C554.7 541 533.3 541 512 541C490.7 541 469.3 541 448 541C426.7 541 405.3 541 384 541C362.7 541 341.3 541 320 541C298.7 541 277.3 541 256 541C234.7 541 213.3 541 192 541C170.7 541 149.3 541 128 541C106.7 541 85.3 541 64 541C42.7 541 21.3 541 10.7 541L0 541Z" fill="#000000" stroke-linecap="round" stroke-linejoin="miter"></path></svg>